<svg xmlns="http://www.w3.org/2000/svg" viewBox="0 0 1440 980" role="img" aria-labelledby="title desc"><title id="title">Mobile task flow placeholder</title><desc id="desc">Placeholder task flow diagram.</desc><rect width="1440" height="980" fill="#fff"/><rect x="96" y="108" width="1248" height="764" rx="16" fill="#fbfaf7" stroke="#111" stroke-width="3"/><g fill="#fff" stroke="#111" stroke-width="3"><rect x="178" y="250" width="230" height="132" rx="12"/><rect x="506" y="250" width="230" height="132" rx="12"/><rect x="834" y="250" width="230" height="132" rx="12"/><rect x="506" y="548" width="230" height="132" rx="12"/><rect x="834" y="548" width="230" height="132" rx="12"/></g><g fill="#d8d6cf"><rect x="220" y="302" width="146" height="16" rx="8"/><rect x="548" y="302" width="146" height="16" rx="8"/><rect x="876" y="302" width="146" height="16" rx="8"/><rect x="548" y="600" width="146" height="16" rx="8"/><rect x="876" y="600" width="146" height="16" rx="8"/></g><g fill="none" stroke="#2563eb" stroke-width="5" stroke-dasharray="10 12"><path d="M408 316h98M736 316h98M949 382v166M736 614h98"/></g><circle cx="293" cy="250" r="11" fill="#10b981"/><circle cx="621" cy="250" r="11" fill="#f97316"/><circle cx="949" cy="250" r="11" fill="#e11d48"/><text x="178" y="790" fill="#5d5f61" font-family="Arial, sans-serif" font-size="30" font-weight="700">Replace with task flow or journey map</text></svg>
