<svg xmlns="http://www.w3.org/2000/svg" viewBox="0 0 1120 980" role="img" aria-labelledby="title desc">
  <title id="title">Neta profile placeholder</title>
  <desc id="desc">A replaceable portfolio profile placeholder in a design canvas style.</desc>
  <rect width="1120" height="980" fill="#fbfaf7"/>
  <path d="M0 0h1120v980H0z" fill="#fbfaf7"/>
  <g opacity=".42" stroke="#d8d6cf">
    <path d="M80 0v980M200 0v980M320 0v980M440 0v980M560 0v980M680 0v980M800 0v980M920 0v980M1040 0v980"/>
    <path d="M0 80h1120M0 200h1120M0 320h1120M0 440h1120M0 560h1120M0 680h1120M0 800h1120M0 920h1120"/>
  </g>
  <rect x="132" y="112" width="856" height="704" rx="16" fill="#fff" stroke="#111" stroke-width="3"/>
  <rect x="156" y="142" width="268" height="638" rx="14" fill="#f3f1eb" stroke="#d8d6cf"/>
  <circle cx="290" cy="340" r="84" fill="#111"/>
  <path d="M178 687c38-112 186-112 224 0v93H178z" fill="#111"/>
  <rect x="472" y="188" width="368" height="34" rx="6" fill="#111"/>
  <rect x="472" y="260" width="420" height="18" rx="9" fill="#d8d6cf"/>
  <rect x="472" y="300" width="358" height="18" rx="9" fill="#d8d6cf"/>
  <rect x="472" y="340" width="404" height="18" rx="9" fill="#d8d6cf"/>
  <rect x="472" y="430" width="140" height="52" rx="26" fill="#2563eb"/>
  <rect x="632" y="430" width="152" height="52" rx="26" fill="#fff" stroke="#111" stroke-width="2"/>
  <g fill="#fff" font-family="Arial, sans-serif" font-size="20" font-weight="700">
    <text x="505" y="463">Work</text>
  </g>
  <g fill="#111" font-family="Arial, sans-serif" font-size="20" font-weight="700">
    <text x="666" y="463">Contact</text>
  </g>
  <rect x="472" y="580" width="404" height="132" rx="10" fill="#fbfaf7" stroke="#d8d6cf"/>
  <circle cx="514" cy="622" r="8" fill="#10b981"/>
  <circle cx="548" cy="622" r="8" fill="#f97316"/>
  <circle cx="582" cy="622" r="8" fill="#e11d48"/>
  <rect x="512" y="662" width="300" height="14" rx="7" fill="#d8d6cf"/>
  <rect x="512" y="696" width="238" height="14" rx="7" fill="#d8d6cf"/>
  <rect x="120" y="100" width="24" height="24" fill="#fbfaf7" stroke="#2563eb" stroke-width="4"/>
  <rect x="976" y="804" width="24" height="24" fill="#fbfaf7" stroke="#2563eb" stroke-width="4"/>
  <text x="132" y="866" fill="#5d5f61" font-family="Arial, sans-serif" font-size="26" font-weight="700">Replace with profile photo or portrait</text>
</svg>
